<?xml version="1.0" encoding="UTF-8" standalone="no"?>
<svg
   xmlns:dc="http://purl.org/dc/elements/1.1/"
   xmlns:cc="http://creativecommons.org/ns#"
   xmlns:rdf="http://www.w3.org/1999/02/22-rdf-syntax-ns#"
   xmlns:svg="http://www.w3.org/2000/svg"
   xmlns="http://www.w3.org/2000/svg"
   id="svg8"
   version="1.1"
   viewBox="0 0 164 42"
   height="42mm"
   width="164mm">
  <defs
     id="defs2" />
  <metadata
     id="metadata5">
    <rdf:RDF>
      <cc:Work
         rdf:about="">
        <dc:format>image/svg+xml</dc:format>
        <dc:type
           rdf:resource="http://purl.org/dc/dcmitype/StillImage" />
        <dc:title></dc:title>
      </cc:Work>
    </rdf:RDF>
  </metadata>
  <g
     transform="translate(0,-255)"
     id="layer1">
    <g
       id="flowRoot3699"
       style="font-style:normal;font-variant:normal;font-weight:normal;font-stretch:normal;font-size:40px;line-height:1.25;font-family:'VCR OSD Mono';-inkscape-font-specification:'VCR OSD Mono';letter-spacing:0px;word-spacing:0px;fill:#000000;fill-opacity:1;stroke:none"
       transform="matrix(0.26458333,0,0,0.26458333,-38.402386,112.63691)"
       aria-label="DR. SKELETON'S
ART SCHOOL">
      <path
         id="path3751"
         style="font-size:74.66666412px;text-align:center;text-anchor:middle"
         d="m 160.40235,550.55338 v 36.45834 h 18.22917 v -3.64584 h 3.64583 v -29.16666 h -3.64583 v -3.64584 z m -7.29166,43.75 v -51.04166 h 29.16666 v 3.64583 h 3.64584 v 3.64583 h 3.64583 v 36.45834 h -3.64583 v 3.64583 h -3.64584 v 3.64583 z" />
      <path
         id="path3753"
         style="font-size:74.66666412px;text-align:center;text-anchor:middle"
         d="m 204.15235,550.55338 v 14.58334 h 18.22917 v -3.64584 h 3.64583 v -7.29166 h -3.64583 v -3.64584 z m 3.64584,21.875 h -3.64584 v 21.875 h -7.29166 v -51.04166 h 29.16666 v 3.64583 h 3.64584 v 3.64583 h 3.64583 v 14.58334 h -3.64583 v 3.64583 h -3.64584 v 3.64583 h -7.29166 v 3.64584 h 3.64583 v 3.64583 h 3.64583 v 3.64583 h 3.64584 v 3.64584 h 3.64583 v 7.29166 h -7.29167 v -3.64583 h -3.64583 v -3.64583 h -3.64583 v -3.64584 h -3.64584 v -3.64583 h -3.64583 v -3.64583 h -3.64583 z" />
      <path
         id="path3755"
         style="font-size:74.66666412px;text-align:center;text-anchor:middle"
         d="m 258.83985,587.01172 v 7.29166 h -7.29166 v -7.29166 z" />
      <path
         id="path3757"
         style="font-size:74.66666412px;text-align:center;text-anchor:middle"
         d="m 360.92319,550.55338 h 3.64583 v 7.29167 h -7.29167 v -3.64583 h -3.64583 v -3.64584 h -14.58333 v 3.64584 h -3.64584 v 7.29166 h 3.64584 v 3.64584 h 18.22916 v 3.64583 h 3.64584 v 3.64583 h 3.64583 v 14.58334 h -3.64583 v 3.64583 h -3.64584 v 3.64583 h -21.875 v -3.64583 h -3.64583 v -3.64583 h -3.64583 v -7.29167 h 7.29166 v 3.64583 h 3.64584 v 3.64584 h 14.58333 v -3.64584 h 3.64583 v -7.29166 h -3.64583 v -3.64584 h -18.22917 v -3.64583 h -3.64583 v -3.64583 h -3.64583 v -14.58334 h 3.64583 v -3.64583 h 3.64583 v -3.64583 h 21.875 v 3.64583 h 3.64584 z" />
      <path
         id="path3759"
         style="font-size:74.66666412px;text-align:center;text-anchor:middle"
         d="m 379.15235,572.42838 v 21.875 h -7.29166 v -51.04166 h 7.29166 v 21.875 h 3.64584 v -3.64584 h 3.64583 v -3.64583 h 3.64583 v -3.64583 h 3.64584 v -3.64584 h 3.64583 v -3.64583 h 3.64583 v -3.64583 h 7.29167 v 7.29166 h -3.64583 v 3.64584 h -3.64584 v 3.64583 h -3.64583 v 3.64583 h -3.64583 v 3.64584 h -3.64584 v 7.29166 h 3.64584 v 3.64584 h 3.64583 v 3.64583 h 3.64583 v 3.64583 h 3.64584 v 3.64584 h 3.64583 v 7.29166 h -7.29167 v -3.64583 h -3.64583 v -3.64583 h -3.64583 v -3.64584 h -3.64584 v -3.64583 h -3.64583 v -3.64583 h -3.64583 v -3.64584 z" />
      <path
         id="path3761"
         style="font-size:74.66666412px;text-align:center;text-anchor:middle"
         d="m 452.06902,543.26172 v 7.29166 h -29.16667 v 14.58334 h 21.875 v 7.29166 h -21.875 v 14.58334 h 29.16667 v 7.29166 h -36.45833 v -51.04166 z" />
      <path
         id="path3763"
         style="font-size:74.66666412px;text-align:center;text-anchor:middle"
         d="m 459.36069,594.30338 v -51.04166 h 7.29166 v 43.75 h 29.16667 v 7.29166 z" />
      <path
         id="path3765"
         style="font-size:74.66666412px;text-align:center;text-anchor:middle"
         d="m 539.56902,543.26172 v 7.29166 h -29.16667 v 14.58334 h 21.875 v 7.29166 h -21.875 v 14.58334 h 29.16667 v 7.29166 h -36.45833 v -51.04166 z" />
      <path
         id="path3767"
         style="font-size:74.66666412px;text-align:center;text-anchor:middle"
         d="m 561.44402,550.55338 h -14.58333 v -7.29166 h 36.45833 v 7.29166 h -14.58333 v 43.75 h -7.29167 z" />
      <path
         id="path3769"
         style="font-size:74.66666412px;text-align:center;text-anchor:middle"
         d="m 616.13152,550.55338 h -14.58333 v 3.64584 h -3.64584 v 29.16666 h 3.64584 v 3.64584 h 14.58333 v -3.64584 h 3.64583 v -29.16666 h -3.64583 z m -18.22917,-3.64583 v -3.64583 h 21.875 v 3.64583 h 3.64584 v 3.64583 h 3.64583 v 36.45834 h -3.64583 v 3.64583 h -3.64584 v 3.64583 h -21.875 v -3.64583 h -3.64583 v -3.64583 h -3.64583 v -36.45834 h 3.64583 v -3.64583 z" />
      <path
         id="path3771"
         style="font-size:74.66666412px;text-align:center;text-anchor:middle"
         d="m 641.65235,565.13672 v 29.16666 h -7.29166 v -51.04166 h 7.29166 v 10.9375 h 3.64584 v 3.64583 h 3.64583 v 3.64583 h 3.64583 v 3.64584 h 3.64584 v 3.64583 h 3.64583 v 3.64583 h 3.64583 v -29.16666 h 7.29167 v 51.04166 h -7.29167 v -10.9375 h -3.64583 v -3.64583 h -3.64583 v -3.64583 h -3.64584 v -3.64584 h -3.64583 v -3.64583 h -3.64583 v -3.64583 z" />
      <path
         id="path3773"
         style="font-size:74.66666412px;text-align:center;text-anchor:middle"
         d="m 699.98569,543.26172 v 10.9375 h -3.64584 v 3.64583 h -3.64583 v -3.64583 h -3.64583 v -10.9375 z" />
      <path
         id="path3775"
         style="font-size:74.66666412px;text-align:center;text-anchor:middle"
         d="m 754.67319,550.55338 h 3.64583 v 7.29167 h -7.29167 v -3.64583 h -3.64583 v -3.64584 h -14.58333 v 3.64584 h -3.64584 v 7.29166 h 3.64584 v 3.64584 h 18.22916 v 3.64583 h 3.64584 v 3.64583 h 3.64583 v 14.58334 h -3.64583 v 3.64583 h -3.64584 v 3.64583 h -21.875 v -3.64583 h -3.64583 v -3.64583 h -3.64583 v -7.29167 h 7.29166 v 3.64583 h 3.64584 v 3.64584 h 14.58333 v -3.64584 h 3.64583 v -7.29166 h -3.64583 v -3.64584 h -18.22917 v -3.64583 h -3.64583 v -3.64583 h -3.64583 v -14.58334 h 3.64583 v -3.64583 h 3.64583 v -3.64583 h 21.875 v 3.64583 h 3.64584 z" />
      <path
         id="path3777"
         style="font-size:74.66666412px;text-align:center;text-anchor:middle"
         d="m 247.90235,665.7617 h 21.875 v -10.9375 h -3.64583 v -3.64584 h -3.64584 v -3.64583 h -7.29166 v 3.64583 h -3.64584 v 3.64584 h -3.64583 z m 0,21.875 h -7.29167 v -36.45834 h 3.64584 v -3.64583 h 3.64583 v -3.64583 h 3.64583 v -3.64584 h 3.64584 v -3.64583 h 7.29166 v 3.64583 h 3.64584 v 3.64584 h 3.64583 v 3.64583 h 3.64583 v 3.64583 h 3.64584 v 36.45834 h -7.29167 v -14.58334 h -21.875 z" />
      <path
         id="path3779"
         style="font-size:74.66666412px;text-align:center;text-anchor:middle"
         d="m 291.65235,643.8867 v 14.58333 h 18.22917 v -3.64583 h 3.64583 v -7.29167 h -3.64583 v -3.64583 z m 3.64583,21.875 h -3.64583 v 21.875 h -7.29167 v -51.04167 h 29.16667 v 3.64583 h 3.64583 v 3.64584 h 3.64584 v 14.58333 h -3.64584 v 3.64583 h -3.64583 v 3.64584 h -7.29167 v 3.64583 h 3.64584 v 3.64583 h 3.64583 v 3.64584 h 3.64583 v 3.64583 h 3.64584 v 7.29167 h -7.29167 v -3.64584 h -3.64583 v -3.64583 h -3.64584 v -3.64583 h -3.64583 v -3.64584 h -3.64583 v -3.64583 h -3.64584 z" />
      <path
         id="path3781"
         style="font-size:74.66666412px;text-align:center;text-anchor:middle"
         d="m 342.69402,643.8867 h -14.58334 v -7.29167 h 36.45834 v 7.29167 h -14.58334 v 43.75 h -7.29166 z" />
      <path
         id="path3783"
         style="font-size:74.66666412px;text-align:center;text-anchor:middle"
         d="m 448.42318,643.8867 h 3.64584 v 7.29166 h -7.29167 v -3.64583 h -3.64583 v -3.64583 h -14.58334 v 3.64583 h -3.64583 v 7.29167 h 3.64583 v 3.64583 h 18.22917 v 3.64583 h 3.64583 v 3.64584 h 3.64584 v 14.58333 h -3.64584 v 3.64583 h -3.64583 v 3.64584 h -21.875 v -3.64584 h -3.64583 v -3.64583 h -3.64584 v -7.29167 h 7.29167 v 3.64584 h 3.64583 v 3.64583 h 14.58334 v -3.64583 h 3.64583 v -7.29167 h -3.64583 v -3.64583 h -18.22917 v -3.64584 h -3.64583 v -3.64583 h -3.64584 V 643.8867 h 3.64584 v -3.64584 h 3.64583 v -3.64583 h 21.875 v 3.64583 h 3.64583 z" />
      <path
         id="path3785"
         style="font-size:74.66666412px;text-align:center;text-anchor:middle"
         d="m 470.29818,680.34503 h 14.58334 v -3.64583 h 3.64583 v -3.64584 h 7.29167 v 7.29167 h -3.64584 v 3.64583 h -3.64583 v 3.64584 h -21.875 v -3.64584 h -3.64583 v -3.64583 h -3.64584 V 643.8867 h 3.64584 v -3.64584 h 3.64583 v -3.64583 h 21.875 v 3.64583 h 3.64583 v 3.64584 h 3.64584 v 7.29166 h -7.29167 v -3.64583 h -3.64583 v -3.64583 h -14.58334 v 3.64583 h -3.64583 v 29.16667 h 3.64583 z" />
      <path
         id="path3787"
         style="font-size:74.66666412px;text-align:center;text-anchor:middle"
         d="m 510.40235,665.7617 v 21.875 h -7.29167 v -51.04167 h 7.29167 v 21.875 h 21.875 v -21.875 h 7.29167 v 51.04167 h -7.29167 v -21.875 z" />
      <path
         id="path3789"
         style="font-size:74.66666412px;text-align:center;text-anchor:middle"
         d="m 572.38152,643.8867 h -14.58334 v 3.64583 h -3.64583 v 29.16667 h 3.64583 v 3.64583 h 14.58334 v -3.64583 h 3.64583 v -29.16667 h -3.64583 z m -18.22917,-3.64584 v -3.64583 h 21.875 v 3.64583 h 3.64583 v 3.64584 h 3.64584 v 36.45833 h -3.64584 v 3.64583 h -3.64583 v 3.64584 h -21.875 v -3.64584 h -3.64583 v -3.64583 h -3.64584 V 643.8867 h 3.64584 v -3.64584 z" />
      <path
         id="path3791"
         style="font-size:74.66666412px;text-align:center;text-anchor:middle"
         d="m 616.13152,643.8867 h -14.58334 v 3.64583 h -3.64583 v 29.16667 h 3.64583 v 3.64583 h 14.58334 v -3.64583 h 3.64583 v -29.16667 h -3.64583 z m -18.22917,-3.64584 v -3.64583 h 21.875 v 3.64583 h 3.64583 v 3.64584 h 3.64584 v 36.45833 h -3.64584 v 3.64583 h -3.64583 v 3.64584 h -21.875 v -3.64584 h -3.64583 v -3.64583 h -3.64584 V 643.8867 h 3.64584 v -3.64584 z" />
      <path
         id="path3793"
         style="font-size:74.66666412px;text-align:center;text-anchor:middle"
         d="m 634.36068,687.6367 v -51.04167 h 7.29167 v 43.75 h 29.16667 v 7.29167 z" />
    </g>
  </g>
</svg>
