<?xml version="1.0" encoding="UTF-8" standalone="no"?>
<svg
   xmlns:dc="http://purl.org/dc/elements/1.1/"
   xmlns:cc="http://creativecommons.org/ns#"
   xmlns:rdf="http://www.w3.org/1999/02/22-rdf-syntax-ns#"
   xmlns:svg="http://www.w3.org/2000/svg"
   xmlns="http://www.w3.org/2000/svg"
   id="svg8"
   version="1.1"
   viewBox="0 0 206 10"
   height="10mm"
   width="206mm">
  <defs
     id="defs2" />
  <metadata
     id="metadata5">
    <rdf:RDF>
      <cc:Work
         rdf:about="">
        <dc:format>image/svg+xml</dc:format>
        <dc:type
           rdf:resource="http://purl.org/dc/dcmitype/StillImage" />
        <dc:title></dc:title>
      </cc:Work>
    </rdf:RDF>
  </metadata>
  <g
     transform="translate(0,-287)"
     id="layer1">
    <g
       id="text12"
       style="font-style:normal;font-variant:normal;font-weight:normal;font-stretch:normal;font-size:10.58333302px;line-height:1.25;font-family:'VCR OSD Mono';-inkscape-font-specification:'VCR OSD Mono';letter-spacing:0px;word-spacing:0px;fill:#6A5099;fill-opacity:1;stroke:none;stroke-width:0.26458332"
       aria-label="DR. SKELETON'S ART SCHOOL">
      <path
         id="path33"
         style="font-size:14.11111069px;stroke-width:0.26458332"
         d="m 1.9914609,288.42074 v 6.89019 h 3.4450954 v -0.68902 h 0.6890191 v -5.51215 H 5.4365563 v -0.68902 z m -1.37803813,8.26823 V 287.0427 H 6.1255754 v 0.68902 h 0.6890191 v 0.68902 h 0.689019 v 6.89019 h -0.689019 v 0.68902 H 6.1255754 v 0.68902 z" />
      <path
         id="path35"
         style="font-size:14.11111069px;stroke-width:0.26458332"
         d="m 10.259689,288.42074 v 2.75608 h 3.445096 v -0.68902 h 0.689019 v -1.37804 h -0.689019 v -0.68902 z m 0.68902,4.13412 h -0.68902 v 4.13411 H 8.8816513 v -9.64627 h 5.5121527 v 0.68902 h 0.689019 v 0.68902 h 0.689019 v 2.75608 h -0.689019 v 0.68902 h -0.689019 v 0.68902 h -1.378038 v 0.68902 h 0.689019 v 0.68902 h 0.689019 v 0.68901 h 0.689019 v 0.68902 h 0.689019 v 1.37804 h -1.378038 v -0.68902 h -0.689019 v -0.68902 h -0.689019 v -0.68902 h -0.689019 v -0.68901 h -0.689019 v -0.68902 h -0.689019 z" />
      <path
         id="path37"
         style="font-size:14.11111069px;stroke-width:0.26458332"
         d="m 20.594975,295.31093 v 1.37804 h -1.378038 v -1.37804 z" />
      <path
         id="path39"
         style="font-size:14.11111069px;stroke-width:0.26458332"
         d="m 39.887509,288.42074 h 0.689019 v 1.37804 H 39.19849 v -0.68902 h -0.68902 v -0.68902 h -2.756076 v 0.68902 h -0.689019 v 1.37804 h 0.689019 v 0.68902 h 3.445096 v 0.68902 h 0.689019 v 0.68902 h 0.689019 v 2.75607 h -0.689019 v 0.68902 H 39.19849 v 0.68902 h -4.134115 v -0.68902 h -0.689019 v -0.68902 h -0.689019 v -1.37803 h 1.378038 v 0.68901 h 0.689019 v 0.68902 h 2.756076 v -0.68902 h 0.68902 v -1.37803 h -0.68902 v -0.68902 h -3.445095 v -0.68902 h -0.689019 v -0.68902 h -0.689019 v -2.75608 h 0.689019 v -0.68902 h 0.689019 v -0.68902 h 4.134115 v 0.68902 h 0.689019 z" />
      <path
         id="path41"
         style="font-size:14.11111069px;stroke-width:0.26458332"
         d="m 43.332602,292.55486 v 4.13411 h -1.378038 v -9.64627 h 1.378038 v 4.13412 h 0.689019 v -0.68902 h 0.689019 v -0.68902 h 0.689019 v -0.68902 h 0.689019 v -0.68902 h 0.689019 v -0.68902 h 0.689019 v -0.68902 h 1.378038 v 1.37804 h -0.689019 v 0.68902 h -0.689019 v 0.68902 h -0.689019 v 0.68902 h -0.689019 v 0.68902 h -0.689019 v 1.37804 h 0.689019 v 0.68902 h 0.689019 v 0.68902 h 0.689019 v 0.68901 h 0.689019 v 0.68902 h 0.689019 v 1.37804 h -1.378038 v -0.68902 h -0.689019 v -0.68902 h -0.689019 v -0.68902 H 45.399659 V 293.9329 H 44.71064 v -0.68902 h -0.689019 v -0.68902 z" />
      <path
         id="path43"
         style="font-size:14.11111069px;stroke-width:0.26458332"
         d="m 57.112985,287.0427 v 1.37804 h -5.512153 v 2.75608 h 4.134115 v 1.37804 h -4.134115 v 2.75607 h 5.512153 v 1.37804 h -6.890191 v -9.64627 z" />
      <path
         id="path45"
         style="font-size:14.11111069px;stroke-width:0.26458332"
         d="m 58.491024,296.68897 v -9.64627 h 1.378039 v 8.26823 h 5.512152 v 1.37804 z" />
      <path
         id="path47"
         style="font-size:14.11111069px;stroke-width:0.26458332"
         d="m 73.649442,287.0427 v 1.37804 h -5.512153 v 2.75608 h 4.134115 v 1.37804 h -4.134115 v 2.75607 h 5.512153 v 1.37804 h -6.890191 v -9.64627 z" />
      <path
         id="path49"
         style="font-size:14.11111069px;stroke-width:0.26458332"
         d="m 77.783554,288.42074 h -2.756076 v -1.37804 h 6.89019 v 1.37804 h -2.756076 v 8.26823 h -1.378038 z" />
      <path
         id="path51"
         style="font-size:14.11111069px;stroke-width:0.26458332"
         d="m 88.118838,288.42074 h -2.756077 v 0.68902 h -0.689019 v 5.51215 h 0.689019 v 0.68902 h 2.756077 v -0.68902 h 0.689019 v -5.51215 h -0.689019 z m -3.445096,-0.68902 v -0.68902 h 4.134115 v 0.68902 h 0.689019 v 0.68902 h 0.689019 v 6.89019 h -0.689019 v 0.68902 h -0.689019 v 0.68902 h -4.134115 v -0.68902 h -0.689019 v -0.68902 h -0.689019 v -6.89019 h 0.689019 v -0.68902 z" />
      <path
         id="path53"
         style="font-size:14.11111069px;stroke-width:0.26458332"
         d="m 92.941977,291.17682 v 5.51215 h -1.378038 v -9.64627 h 1.378038 v 2.06706 h 0.689019 v 0.68902 h 0.689019 v 0.68902 h 0.689019 v 0.68902 h 0.689019 v 0.68902 h 0.689019 v 0.68902 h 0.689019 v -5.51216 h 1.378038 v 9.64627 h -1.378038 v -2.06706 h -0.689019 v -0.68901 h -0.689019 v -0.68902 h -0.689019 v -0.68902 h -0.689019 v -0.68902 h -0.689019 v -0.68902 z" />
      <path
         id="path55"
         style="font-size:14.11111069px;stroke-width:0.26458332"
         d="m 103.96628,287.0427 v 2.06706 h -0.68902 v 0.68902 h -0.68902 v -0.68902 h -0.68902 v -2.06706 z" />
      <path
         id="path57"
         style="font-size:14.11111069px;stroke-width:0.26458332"
         d="m 114.30156,288.42074 h 0.68902 v 1.37804 h -1.37804 v -0.68902 h -0.68901 v -0.68902 h -2.75608 v 0.68902 h -0.68902 v 1.37804 h 0.68902 v 0.68902 h 3.44509 v 0.68902 h 0.68902 v 0.68902 h 0.68902 v 2.75607 h -0.68902 v 0.68902 h -0.68902 v 0.68902 h -4.13411 v -0.68902 h -0.68902 v -0.68902 h -0.68902 v -1.37803 h 1.37804 v 0.68901 h 0.68902 v 0.68902 h 2.75608 v -0.68902 h 0.68901 v -1.37803 h -0.68901 v -0.68902 h -3.4451 v -0.68902 h -0.68902 v -0.68902 h -0.68902 v -2.75608 h 0.68902 v -0.68902 h 0.68902 v -0.68902 h 4.13411 v 0.68902 h 0.68902 z" />
      <path
         id="path59"
         style="font-size:14.11111069px;stroke-width:0.26458332"
         d="m 126.01489,292.55486 h 4.13412 v -2.06706 h -0.68902 v -0.68902 h -0.68902 v -0.68902 h -1.37804 v 0.68902 h -0.68902 v 0.68902 h -0.68902 z m 0,4.13411 h -1.37804 v -6.89019 h 0.68902 v -0.68902 h 0.68902 v -0.68902 h 0.68902 v -0.68902 h 0.68902 v -0.68902 h 1.37804 v 0.68902 h 0.68902 v 0.68902 h 0.68902 v 0.68902 h 0.68901 v 0.68902 h 0.68902 v 6.89019 h -1.37803 v -2.75607 h -4.13412 z" />
      <path
         id="path61"
         style="font-size:14.11111069px;stroke-width:0.26458332"
         d="m 134.28312,288.42074 v 2.75608 h 3.44509 v -0.68902 h 0.68902 v -1.37804 h -0.68902 v -0.68902 z m 0.68902,4.13412 h -0.68902 v 4.13411 h -1.37804 v -9.64627 h 5.51215 v 0.68902 h 0.68902 v 0.68902 h 0.68902 v 2.75608 h -0.68902 v 0.68902 h -0.68902 v 0.68902 h -1.37804 v 0.68902 h 0.68902 v 0.68902 h 0.68902 v 0.68901 h 0.68902 v 0.68902 h 0.68902 v 1.37804 h -1.37804 v -0.68902 h -0.68902 v -0.68902 h -0.68902 v -0.68902 h -0.68902 v -0.68901 h -0.68901 v -0.68902 h -0.68902 z" />
      <path
         id="path63"
         style="font-size:14.11111069px;stroke-width:0.26458332"
         d="m 143.92939,288.42074 h -2.75608 v -1.37804 h 6.89019 v 1.37804 h -2.75607 v 8.26823 h -1.37804 z" />
      <path
         id="path65"
         style="font-size:14.11111069px;stroke-width:0.26458332"
         d="m 163.91094,288.42074 h 0.68902 v 1.37804 h -1.37804 v -0.68902 h -0.68902 v -0.68902 h -2.75608 v 0.68902 h -0.68902 v 1.37804 h 0.68902 v 0.68902 h 3.4451 v 0.68902 h 0.68902 v 0.68902 h 0.68902 v 2.75607 h -0.68902 v 0.68902 h -0.68902 v 0.68902 h -4.13412 v -0.68902 h -0.68901 v -0.68902 h -0.68902 v -1.37803 h 1.37803 v 0.68901 h 0.68902 v 0.68902 h 2.75608 v -0.68902 h 0.68902 v -1.37803 h -0.68902 v -0.68902 h -3.4451 v -0.68902 h -0.68901 v -0.68902 h -0.68902 v -2.75608 h 0.68902 v -0.68902 h 0.68901 v -0.68902 h 4.13412 v 0.68902 h 0.68902 z" />
      <path
         id="path67"
         style="font-size:14.11111069px;stroke-width:0.26458332"
         d="m 168.04504,295.31093 h 2.75608 v -0.68902 h 0.68902 v -0.68901 h 1.37804 v 1.37803 h -0.68902 v 0.68902 h -0.68902 v 0.68902 h -4.13412 v -0.68902 H 166.667 v -0.68902 h -0.68901 v -6.89019 h 0.68901 v -0.68902 h 0.68902 v -0.68902 h 4.13412 v 0.68902 h 0.68902 v 0.68902 h 0.68902 v 1.37804 h -1.37804 v -0.68902 h -0.68902 v -0.68902 h -2.75608 v 0.68902 h -0.68902 v 5.51215 h 0.68902 z" />
      <path
         id="path69"
         style="font-size:14.11111069px;stroke-width:0.26458332"
         d="m 175.62426,292.55486 v 4.13411 h -1.37804 v -9.64627 h 1.37804 v 4.13412 h 4.13411 v -4.13412 h 1.37804 v 9.64627 h -1.37804 v -4.13411 z" />
      <path
         id="path71"
         style="font-size:14.11111069px;stroke-width:0.26458332"
         d="m 187.33759,288.42074 h -2.75608 v 0.68902 h -0.68902 v 5.51215 h 0.68902 v 0.68902 h 2.75608 v -0.68902 h 0.68902 v -5.51215 h -0.68902 z m -3.4451,-0.68902 v -0.68902 h 4.13412 v 0.68902 h 0.68902 v 0.68902 h 0.68902 v 6.89019 h -0.68902 v 0.68902 h -0.68902 v 0.68902 h -4.13412 v -0.68902 h -0.68902 v -0.68902 h -0.68902 v -6.89019 h 0.68902 v -0.68902 z" />
      <path
         id="path73"
         style="font-size:14.11111069px;stroke-width:0.26458332"
         d="m 195.60581,288.42074 h -2.75608 v 0.68902 h -0.68902 v 5.51215 h 0.68902 v 0.68902 h 2.75608 v -0.68902 h 0.68902 v -5.51215 h -0.68902 z m -3.4451,-0.68902 v -0.68902 h 4.13412 v 0.68902 h 0.68901 v 0.68902 h 0.68902 v 6.89019 h -0.68902 v 0.68902 h -0.68901 v 0.68902 h -4.13412 v -0.68902 h -0.68902 v -0.68902 h -0.68902 v -6.89019 h 0.68902 v -0.68902 z" />
      <path
         id="path75"
         style="font-size:14.11111069px;stroke-width:0.26458332"
         d="m 199.05091,296.68897 v -9.64627 h 1.37804 v 8.26823 h 5.51215 v 1.37804 z" />
    </g>
  </g>
</svg>
